<svg xmlns="http://www.w3.org/2000/svg" width="820.4199829101562" height="555.489990234375" style=""><rect id="backgroundrect" width="100%" height="100%" x="0" y="0" fill="none" stroke="none"/><g class="currentLayer" style=""><title>Layer 1</title><path d="M268.4073016119003,0.0008994626998901634 c35,0 69.65,6.91 101.98,20.34 s61.71,33.11 86.45,57.93 c24.75,24.81 44.37,54.27 57.77,86.7 a267.919,267.919 0 0 1 20.29,102.27 c0,108.09 -64.93,205.53 -164.51,246.89 s-214.2,18.5 -290.41,-57.93 C3.7673016119003297,379.7708994626999 -19.03269838809967,264.8308994626999 22.20730161190033,164.9708994626999 C63.45730161190033,65.11089946269989 160.62730161190032,0.0008994626998901634 268.4073016119003,0.0008994626998901634 zm0,347.4 c10.5,0.010000000000000004 20.9,-2.05 30.61,-6.07 s18.52,-9.93 25.95,-17.38 s13.31,-16.29 17.33,-26.02 a80.365,80.365 0 0 0 6.06,-30.7 c0,-32.43 -19.48,-61.66 -49.35,-74.07 s-64.26,-5.55 -87.12,17.38 s-29.7,57.41 -17.33,87.37 s41.53,49.49 73.86,49.49 z" fill="#cceffc" id="svg_1" class="" fill-opacity="1"/><path d="M566.35 200.96c67.71 19.54 147.63 0 147.63 0-23.19 101.55-96.75 165.15-202.81 172.89a266.766 266.766 0 0 1-40.48 65.86 266.208 266.208 0 0 1-57.62 51.43c-21.6 14.24-45.15 25.25-69.92 32.68s-50.48 11.19-76.33 11.18l79.95-254.81C428.95 18.28 471.08.54 665.98.54H799.8c-22.38 98.88-99.54 174.41-233.44 200.42z" fill="#ffffff" id="svg_2" class="" stroke-opacity="1" stroke="#ffffff" fill-opacity="1"/></g></svg>