<svg xmlns="http://www.w3.org/2000/svg" version="1.0" width="1280.000000" height="1280.000000" preserveAspectRatio="xMidYMid meet" style=""><rect id="backgroundrect" width="100%" height="100%" x="0" y="0" fill="none" stroke="none"/>
<metadata>
Created by potrace 1.15, written by Peter Selinger 2001-2017
</metadata>

<g class="currentLayer" style=""><title>Layer 1</title><g transform="translate(0,1280) scale(0.10000000149011612,-0.10000000149011612) " fill="#1eb8f2" stroke="none" id="svg_1" class="selected" fill-opacity="1">
<path d="M3958.4921875,11701.9365234375 c-358,-38 -705,-159 -1032,-360 c-129,-78 -313,-211 -313,-226 c0,-13 15,-25 181,-153 c863,-661 2138,-1166 3609,-1429 c247,-44 537,-89 550,-84 c5,2 -29,79 -76,172 c-525,1043 -1285,1762 -2114,2001 c-197,57 -340,77 -565,80 c-110,2 -218,1 -240,-1 z" id="svg_2" fill="#1eb8f2" fill-opacity="1"/>
<path d="M2249.4921875,10787.9365234375 c-692,-722 -1206,-1834 -1386,-2999 c-11,-69 -18,-126 -17,-127 c2,-3 257,-48 387,-68 c268,-43 756,-95 1100,-118 c312,-20 1268,-17 1575,5 c1230,88 2307,323 3287,718 c84,34 157,65 162,70 c15,14 -91,393 -181,651 l-45,126 l-61,7 c-128,13 -369,47 -575,81 c-1600,261 -2980,805 -3885,1531 c-65,53 -145,119 -176,147 c-31,28 -63,57 -72,64 c-14,10 -30,-2 -113,-88 z" id="svg_3" fill="#1eb8f2" fill-opacity="1"/>
<path d="M5021.4921875,9740.9365234375 c7,-3 16,-2 19,1 c4,3 -2,6 -13,5 c-11,0 -14,-3 -6,-6 z" id="svg_4" fill="#1eb8f2" fill-opacity="1"/>
<path d="M10223.4921875,8301.9365234375 c-88,-11 -246,-37 -251,-43 c-13,-12 132,-303 237,-478 c340,-564 873,-1145 1541,-1679 c150,-120 493,-374 506,-374 c10,0 9,282 -3,445 c-79,1073 -585,1848 -1352,2069 c-157,45 -252,58 -453,61 c-104,2 -206,1 -225,-1 z" id="svg_5" fill="#1eb8f2" fill-opacity="1"/>
<path d="M9688.4921875,8187.9365234375 c-11,-4 -54,-20 -95,-36 c-126,-46 -209,-83 -354,-155 c-139,-69 -175,-91 -349,-203 c-361,-233 -733,-578 -1043,-966 c-59,-73 -174,-235 -174,-244 c0,-8 255,-193 425,-308 c940,-636 2031,-1103 3100,-1328 c275,-58 666,-112 879,-122 l60,-3 l18,85 c35,165 71,374 80,464 c3,28 -7,37 -163,145 c-1016,706 -1761,1489 -2174,2286 c-40,77 -94,192 -120,255 c-26,63 -49,121 -52,128 c-6,14 -10,14 -38,2 z" id="svg_6" fill="#1eb8f2" fill-opacity="1"/>
<path d="M7318.4921875,7818.9365234375 c-393,-171 -922,-345 -1424,-467 c-692,-170 -1417,-273 -2196,-314 c-246,-13 -988,-13 -1225,0 c-532,29 -1060,88 -1507,169 c-87,16 -160,27 -163,24 c-3,-3 -5,-181 -5,-396 c0,-315 4,-424 18,-552 c43,-376 113,-706 217,-1015 c94,-282 81,-262 207,-321 c995,-468 2101,-578 3168,-314 c340,84 612,184 940,345 c970,478 1700,1254 2095,2230 l55,135 l-3,110 c-2,125 -42,407 -57,411 c-5,1 -60,-19 -120,-45 z" id="svg_7" fill="#1eb8f2" fill-opacity="1"/>
<path d="M7489.4921875,6325.9365234375 c-7,-13 -49,-79 -91,-148 c-424,-683 -1009,-1212 -1754,-1584 c-503,-253 -994,-397 -1591,-467 c-251,-30 -723,-33 -970,-5 c-619,67 -1149,222 -1665,484 c-74,37 -135,66 -135,62 c0,-3 27,-55 61,-115 c242,-436 581,-823 974,-1110 c487,-356 1047,-552 1670,-585 c875,-45 1686,250 2337,851 c233,215 481,534 646,832 c33,60 62,111 65,113 c2,2 52,-51 110,-119 c572,-664 1388,-1089 2267,-1183 c210,-22 617,-15 805,15 c284,44 573,120 743,197 c29,13 55,24 59,24 c15,0 283,134 352,177 c268,164 555,395 578,466 c6,17 29,84 51,147 c62,177 62,160 2,160 c-71,0 -419,37 -575,60 c-1010,155 -2091,555 -3057,1131 c-357,213 -873,574 -862,604 c9,23 -4,18 -20,-7 z" id="svg_8" fill="#1eb8f2" fill-opacity="1"/>
<path d="M6963.4921875,4411.9365234375 c1,-123 34,-376 69,-524 c126,-532 430,-1007 841,-1316 c591,-443 1321,-590 2015,-404 c493,132 938,418 1345,865 c97,107 367,471 356,482 c-2,2 -46,-24 -97,-57 c-167,-108 -449,-240 -686,-318 c-368,-123 -852,-177 -1279,-143 c-746,61 -1481,383 -2049,901 c-162,147 -358,368 -474,534 l-41,59 l0,-79 z" id="svg_9" fill="#1eb8f2" fill-opacity="1"/>
</g></g></svg>